<svg xmlns="http://www.w3.org/2000/svg" viewBox="0 0 768 768"><path id="basis" fill-rule="evenodd" d="M410 762.4C412.1 762.2 415.1 762 416.7 761.9C418.2 761.8 420.8 761.5 422.5 761.3C430.8 760.4 436.6 759.6 437 759.4C437.3 759.3 438.5 759.1 439.7 759C440.9 758.8 442.5 758.6 443.3 758.4C444.2 758.2 446.3 757.8 448 757.5C449.7 757.2 452.1 756.8 453.2 756.5C454.3 756.3 456.3 755.8 457.7 755.5C460.7 754.9 468.9 752.9 472.3 752C478.3 750.3 483.2 748.9 484.8 748.4C485.4 748.2 488.1 747.2 490.9 746.3C493.7 745.4 496.3 744.5 496.7 744.4C497.1 744.2 498.8 743.6 500.5 743C506.1 741.1 515.7 737 515.7 736.7C515.7 736.5 513.9 735.2 511.8 733.6C509.7 732.1 506.4 729.7 504.6 728.4L501.2 725.9L493.4 728.5C489 729.9 485.1 731.3 484.5 731.5C483.5 731.9 471.6 735.8 470 736.1C469.5 736.3 466.8 737 463.8 737.7C457.5 739.3 455.3 739.8 452 740.5C444 742.2 440.7 742.8 436 743.5C434.1 743.8 431.4 744.2 430.2 744.4C428.9 744.6 426.7 744.9 425.3 745C424 745.1 421.6 745.4 420.2 745.6C418.7 745.8 416.2 746.1 414.5 746.2C412.8 746.3 409.7 746.5 407.5 746.7C402.1 747.2 373 747.2 367.7 746.7C365.4 746.5 362.2 746.3 360.5 746.2C358.8 746.1 356.4 745.8 355 745.6C353.6 745.4 351.3 745.1 349.8 745C348.4 744.8 346.1 744.6 344.8 744.4C343.6 744.2 341 743.8 339.2 743.5C332 742.4 319.5 739.8 314.8 738.5C313.9 738.2 312.8 738 312.5 738C312.1 738 311.3 737.8 310.5 737.5C309.8 737.3 308.2 736.8 307 736.5C305.8 736.2 304.1 735.7 303.2 735.5C301.6 735 301.3 734.9 295 733C293.1 732.4 291.2 731.8 290.8 731.6C289.9 731.2 287.4 730.3 286.2 730C285.6 729.9 284.3 729.4 283.3 729C282.3 728.6 281.1 728.2 280.7 728C280.2 727.8 279.1 727.4 278.2 727.1C277.2 726.7 275.5 726 274.3 725.6C271.8 724.6 264.9 721.6 262.5 720.5C261.6 720.1 259.8 719.3 258.5 718.7C254.2 716.7 246.2 712.6 241.3 709.9C236.8 707.4 235.1 706.5 234 705.8C233.4 705.4 232.6 705 232.3 704.9C232.1 704.8 231.4 704.4 230.9 704.1C230.4 703.8 228.3 702.4 226.1 701.1C217.4 695.7 212.5 692.3 203.9 685.9C200.3 683.2 197 680.7 196.7 680.5C196.4 680.2 194.1 678.2 191.5 676.1C188.9 674 184.4 670.1 181.4 667.4C178.4 664.7 175.1 661.8 174.1 660.8C171.6 658.7 162.2 649.4 160.2 647C159.3 646 157.7 644.2 156.5 643C155.4 641.8 153.8 639.9 152.8 638.8C147.8 632.9 143.6 627.7 141.5 625C140.2 623.3 138.8 621.4 138.3 620.9C137.3 619.7 129.7 609.3 128.3 607.2C127.8 606.4 126.6 604.6 125.5 603.2L123.7 600.5L115.3 600.6C107.9 600.7 106.8 600.7 106.9 601.2C107 601.6 108.5 604.1 111.8 609.6C118.3 620.2 127.1 632.2 136.5 643.5C138.4 645.7 140.2 647.9 140.5 648.3C147.1 656.4 166.7 676.1 174.4 682.3C175.4 683.1 178.4 685.6 181.1 687.8C185.6 691.7 189 694.4 191 695.8C191.5 696.2 193 697.3 194.4 698.4C201.6 703.8 213.3 711.9 218.7 715.2C219.1 715.3 220.7 716.3 222.4 717.4C224.1 718.4 226.4 719.8 227.5 720.4C228.6 721 230 721.8 230.7 722.2C231.3 722.6 231.9 723 232.1 723C232.2 723 233 723.4 233.7 723.9C237.6 726.3 255 734.7 262.5 737.8C264.2 738.5 265.9 739.2 266.5 739.5C269.6 740.9 274.3 742.7 278.2 744C279.8 744.6 281.7 745.3 282.3 745.5C282.9 745.8 283.6 746 283.8 746C284.1 746 284.8 746.2 285.4 746.5C286.5 746.9 290.6 748.2 294.8 749.5C295.9 749.8 297.4 750.3 298.2 750.5C300.2 751.1 302.9 751.9 305.3 752.5C306.5 752.8 308.2 753.3 309.2 753.5C310.1 753.8 312 754.2 313.3 754.5C314.7 754.8 316.7 755.3 317.7 755.5C318.7 755.8 320.8 756.2 322.3 756.5C323.9 756.8 325.8 757.2 326.7 757.4C329.2 757.9 333.7 758.7 335.8 759C336.9 759.2 338.7 759.4 339.7 759.6C344.3 760.5 357 761.8 363.8 762.2C366.2 762.3 368.5 762.6 369 762.7C370.3 763.1 405.6 762.8 410 762.4ZM568 740.2C579.2 738.4 587.1 734.2 593.8 726.7C594.8 725.5 595.9 724.2 596.1 723.8C598.3 719.9 599.7 716.8 599.7 715.6C599.7 714.5 598.7 713.1 597.8 712.9C596.2 712.6 595.4 713.1 594 715.3C591.8 718.6 586.8 723.4 583.6 725.3C580.1 727.3 577.1 728.6 573.3 729.6C570.2 730.4 559 730.4 555 729.6C543.5 727.2 532.7 721.5 522.2 712.6C519.9 710.6 512.8 703.6 510.9 701.3C503.8 692.9 496.3 682.1 488.3 668.4L487.6 667.4L491.1 665.7C495.2 663.7 498.3 661 500.4 657.7C502.2 655 502.6 654.1 503.4 651C505.3 643.5 502.3 634.5 496.4 629.8C494.5 628.3 490.1 626 489.2 626C489 626 488.2 625.8 487.6 625.5C487 625.3 485 624.8 483.2 624.5C480.3 624 477 624 458.3 624.1L436.8 624.2L436.7 625.6C436.6 627.8 436.9 628.7 437.8 628.7C440.2 628.7 443.3 630.7 444.4 633.1C445 634.4 445 636.1 445 665.1C445 694.9 445 695.7 444.3 697C443.6 698.5 441.2 700.6 440 700.9C439.5 701 438.6 701.3 438 701.6C436.9 702.2 436.8 702.3 436.9 703.7C437 704.5 437.1 705.4 437.2 705.6C437.3 705.9 440.8 706 453.9 705.9L470.5 705.8L470.6 704C470.7 702.3 470.6 702.1 469.9 701.7C469.4 701.5 468.5 701.3 467.8 701.1C465.9 700.8 464.2 699.7 462.6 697.8C461.8 696.9 461.5 691.1 461.5 678.5L461.5 670.2L466.3 670.2L471.1 670.2L472.6 672.7C473.4 674 474.6 676.1 475.3 677.3C475.9 678.5 476.8 680 477.2 680.7C477.6 681.3 478 682.1 478.1 682.3C478.2 682.6 478.5 683.1 478.7 683.3C479.2 684.2 482 689 482 689.2C482 689.5 486.7 697.2 488.3 699.5C495.8 710.5 505.8 720.5 515.7 727.1C520.6 730.3 529.3 735 530.4 735C530.7 735 531 735.1 531.2 735.3C531.5 735.5 532.9 736.1 536.3 737.3C537 737.5 538 737.9 538.7 738C539.3 738.1 540.3 738.4 540.8 738.6C542.5 739.2 546.7 740 549.8 740.3C551.5 740.5 553.2 740.7 553.7 740.8C555.3 741.1 565.2 740.7 568 740.2ZM553.1 717.5C554.9 716.4 556.6 715.4 556.9 715.2C557.2 715 559.1 713.8 561 712.5C562.9 711.2 564.8 710 565.1 709.8C567.3 708.5 573 704.5 581.3 698.4C592.8 689.9 604.3 680 616.3 668.2C634.5 650.3 648.3 633.5 661.5 613.4C669.8 600.7 680.7 581.1 686.2 568.8C687.8 565.1 689.1 562.2 689.5 561.2C690.3 559.3 693.1 552.5 693.6 551.2C693.8 550.4 694.2 549.5 694.4 549C694.6 548.5 694.9 547.8 695 547.3C695.2 546.9 695.6 545.7 696 544.7C696.4 543.7 697.1 541.8 697.5 540.5C697.9 539.2 698.4 537.8 698.6 537.3C698.8 536.9 699.6 534.2 700.5 531.5C703.1 522.9 704.3 518.9 705.5 514C705.8 512.8 706.3 511 706.5 510C707.2 507.4 708.8 499.7 709.5 496C709.8 494.3 710.3 492 710.5 490.9C710.8 489.9 711 488.5 711 487.9C711 487.3 711.1 486.3 711.3 485.7C711.5 485 711.9 482.6 712.2 480.3C712.5 478 712.9 474.4 713.2 472.2C713.5 470 713.9 466.4 714 464.2C714.2 462 714.5 458.4 714.7 456.3C715.2 451.2 715.2 423.2 714.7 417.8C714.5 415.6 714.2 412.1 714 410C713.9 407.9 713.6 404.9 713.4 403.3C713.2 401.8 712.8 398.6 712.5 396.2C712.2 393.8 711.8 391 711.6 390C711.5 389 711.2 386.9 711 385.4C710.8 383.9 710.5 382.4 710.3 382C710.2 381.7 710 380.8 710 380.1C710 379.4 709.9 378.3 709.7 377.8C709.4 376.9 709 375 708 369.6C707.8 368.7 707.6 367.5 707.4 366.9C707.2 366.3 706.8 364.6 706.5 363.2C706.2 361.7 705.7 359.8 705.5 358.8C705.2 357.9 704.8 356.2 704.5 355C704.2 353.8 703.8 352.2 703.5 351.3C703.3 350.5 702.9 349 702.6 348C700.4 340.5 697 330 694.8 324.3C694.3 323.1 693.8 321.6 693.5 321C692.4 318 690.9 314.4 690.5 313.6C690.2 313 690 312.5 690 312.3C690 312 688.2 307.9 686 303.2C684.5 300 678.5 288 677.4 286C671.8 275.7 668.1 269.6 662.4 261C656.7 252.5 657.5 253.8 652.9 247.5C647.6 240.5 647.4 240.1 643.8 235.8C633.1 222.9 619.8 209.3 605.7 197L603.3 194.8L600.8 194.8C598.6 194.8 598.3 194.9 597.4 195.8C596 197.1 595.6 198.6 595.7 200.9L595.9 202.8L600.5 207.1C608.9 214.9 620.2 226.6 624.6 231.9C625 232.4 625.9 233.4 626.6 234.1C627.2 234.9 628.4 236.2 629.1 237.2C629.9 238.1 631.7 240.4 633.2 242.2C636.6 246.4 644.2 256.6 647 260.7C650.6 266.1 653.5 270.4 654.5 272.1C655.1 273 655.8 274.1 656.1 274.6C656.4 275.1 656.8 275.7 656.9 276C657 276.3 657.6 277.1 658.1 277.9C658.6 278.6 659 279.4 659 279.5C659 279.6 659.4 280.3 659.8 281C662.9 285.9 671.4 302.8 674.5 310.3C674.8 310.9 675.2 311.8 675.5 312.4C677.6 317.2 677.7 317.4 679.5 322.2C680.4 324.4 681.3 326.7 681.5 327.3C682.1 328.8 683.3 332.4 684.9 337.2C685.5 339.2 686.3 341.4 686.5 342C687 343.3 687.4 344.9 689.5 352C689.7 353 690.2 354.8 690.5 356C690.8 357.2 691.2 359 691.5 360C692.3 363 693.6 368.9 694.4 373.3C695.8 380.2 696 381.2 696 381.9C696 383 695.6 382.9 693.3 381C691.4 379.5 686.7 376.5 685.3 375.9C685.1 375.8 684.6 375.5 684.3 375.4C682 374 675 372.4 670.7 372.3C669.1 372.3 663.2 373.1 661.4 373.7C652.9 376.3 645.8 382.4 642.1 390.3C639.2 396.6 638.8 398.1 638.8 404.5C638.8 409.5 638.9 410.4 639.6 412.7C641.1 417.4 644.1 422.5 647.1 425.5C649.3 427.6 653.1 429.9 656.3 431C659.1 431.9 660 432 663.2 432.1C666 432.1 667.3 431.9 669 431.4C675 429.5 678.3 427.1 680.8 423C682.7 419.7 683.1 418.4 683.1 414C683.1 410.4 683 410 682 407.5C680.7 404.4 679.2 402.6 677.2 401.9C675.9 401.4 675.5 401.3 674.4 401.7C671.9 402.5 671.6 402.8 671.9 404.8C672 405.7 672.3 406.9 672.6 407.5C673 408.2 673.1 409.5 673.1 412.2C673.2 415.4 673.1 416 672.4 417C669.4 421.9 663.3 423.1 658.1 419.8C654 417.2 651.9 414.2 650.6 408.8C649.7 405.2 649.9 402.6 651.6 398.2C652.7 395.1 653.6 393.7 656 391.3C659.9 387.3 664.1 385.6 669.8 385.6C677.2 385.5 682.8 388 688.1 393.5C691.5 397.1 695.4 404 697 409.5C697.9 412.5 698.8 415.8 699.2 418C699.7 420.4 699.9 421.9 700.6 430.2C701 434.8 701 445.6 700.6 450.8C700.5 453 700.2 456.6 700 458.8C699.6 464.9 697.8 479.5 696.8 484.7C696.5 486.2 696.2 488.3 696 489.3C695.9 490.3 695.6 491.8 695.4 492.7C695.2 493.5 694.8 495.4 694.5 497C694.2 498.6 693.7 500.6 693.5 501.5C693.3 502.4 692.6 505.2 692 507.7C691.4 510.1 690.8 512.8 690.5 513.7C690.3 514.5 689.6 516.9 689 519C688.4 521.1 687.8 523.4 687.5 524C687.3 524.6 686.8 526.1 686.5 527.2C686.2 528.3 685.8 529.5 685.6 530C685.4 530.5 685.1 531.3 685 531.8C684.8 532.4 684.4 533.7 684 534.7C683.6 535.7 683 537.4 682.6 538.5C681.2 542.8 676.5 554.4 673.8 560.3C671.4 565.6 663.5 581.1 661.2 584.9C660.6 586.1 660 587.1 660 587.2C660 587.3 654.7 596.2 653.5 598C651.4 601.3 643.5 613.1 642.3 614.7C641.6 615.7 640.4 617.3 639.6 618.3C636.8 622.2 635.8 623.6 633.2 626.8C631.7 628.6 630.1 630.7 629.5 631.3C627.7 633.6 621.6 640.8 620 642.5C609 654.4 598 665.1 591.3 670.5C590.1 671.5 587 674.1 584.3 676.3C579.9 680.1 567.8 689.3 563.8 692C560.6 694.2 549 701.8 547.5 702.8C544 705 542.8 705.7 542.3 705.9C542.1 706 541.2 706.5 540.5 707C539.8 707.5 538.1 708.5 536.8 709.2C535.5 709.9 534.1 710.7 533.6 711.1C532.8 711.6 532.8 711.6 533.5 712.3C534.1 712.9 534.8 713.3 539.2 715.7C540.1 716.2 542.2 717.1 543.9 717.8C545.5 718.5 547.3 719.2 547.8 719.5C549 720 549 720 553.1 717.5ZM317 705.5C322 704.6 327.4 702.6 330.3 700.6C332 699.4 335.1 696.4 336.2 694.8C337.3 693.3 338.9 689.7 339.5 687.7C340.2 685.4 340 679 339.3 676.5C338.5 674 337 671.3 335.4 669.3C333.1 666.6 331.1 665.4 323.9 662.4C323.2 662.1 322.7 661.8 322.7 661.6C322.7 661.5 323.4 661.1 324.2 660.7C330.4 658 334.7 650.9 334.7 643.5C334.7 640.3 334.2 638.4 332.7 635.4C329.8 629.6 323.9 626 314.5 624.5C311.6 624.1 308.1 624 289.5 624.1L267.8 624.2L267.9 626C268.1 628.2 268.3 628.6 270.1 628.8C272.5 629.3 274.4 630.7 275.4 633C276 634.4 276 635.4 276 664.7C276 692 275.9 695.1 275.5 696.4C274.5 698.9 272.8 700.3 269.3 701.4C267.8 701.8 267.8 701.9 267.7 703.5C267.7 704.4 267.7 705.3 267.8 705.5C268.1 706.3 313.1 706.2 317 705.5ZM369.9 704.3C370 702.8 370 702.6 369 702C368.4 701.7 367.4 701.3 366.7 701.2C365.2 701 363.5 699.7 362.8 698.3C362 696.7 362.1 695.9 364 691C364.4 690 364.8 688.8 365 688.3C365.2 687.9 365.6 686.7 366 685.7C366.4 684.7 366.8 683.4 367 683C367.1 682.5 367.5 681.6 367.8 681.1L368.4 680L383 680.1L397.7 680.2L398.9 683C400 685.7 400.3 686.5 401.5 689.6C401.7 690.3 402.4 691.9 403 693.3C404.1 696 404.2 697.2 403.5 698.6C403 699.7 401.3 701 400.4 701C400.1 701 399.2 701.3 398.4 701.7C397.1 702.3 397 702.4 397 703.6C397 706.2 395.5 706 413.7 706L430 706L429.9 703.9L429.8 701.8L428.3 701.3C426 700.5 423.5 698.8 422.4 697.2C421.9 696.5 420.9 694.5 420.2 692.8C419.5 691.2 418.7 689.4 418.5 688.8C417.6 686.8 417.3 686.1 416.5 684C416 682.8 415.5 681.5 415.4 681.2C415.2 680.8 414.6 679.4 414.1 678C412.8 674.7 410 668.1 409.5 666.8C409.3 666.3 408.6 664.6 408 663.2C407.4 661.7 406.8 660.1 406.5 659.5C406.3 658.9 405.8 657.8 405.5 657C405.2 656.2 404.7 655.1 404.5 654.5C404.2 653.9 403.7 652.7 403.3 651.7C403 650.7 402.5 649.5 402.3 649.2C402.2 648.8 401.7 647.7 401.3 646.7C401 645.7 400.5 644.5 400.4 644.2C400.2 643.8 399.8 642.8 399.5 642C399.2 641.2 398.8 640.2 398.6 639.8C398.5 639.5 398 638.3 397.7 637.3C397.3 636.3 396.5 634.4 396 633.2C395.5 631.9 394.6 629.8 394.2 628.5C393.7 627.2 393 625.5 392.6 624.6L391.9 623L386.6 623C381.6 623 381.3 623 380.7 623.7C380.3 624.1 380 624.6 380 624.9C380 625.1 379.6 626.3 379 627.5C378.5 628.8 377.6 631 377 632.5C376.4 634 375.7 635.6 375.5 636.2C375.3 636.7 374.6 638.3 374.1 639.7C373.5 641 372.6 643.4 372 644.8C371.4 646.3 370.5 648.6 370 649.8C369.5 651.1 368.6 653.4 368 654.8C367.4 656.3 366.5 658.6 365.9 660C365.4 661.4 364.8 662.9 364.5 663.5C364.3 664.1 363.9 665.1 363.6 665.8C363.3 666.6 362.6 668.3 362 669.8C361.5 671.2 360.6 673.4 360 674.8C358.4 678.9 356.9 682.5 356.5 683.5C356.3 684.1 355.8 685.2 355.5 686C355.2 686.8 354.7 687.9 354.5 688.5C354.2 689.1 353.5 690.8 353 692.3C351.1 697.3 349.2 699.5 345.5 701L343.2 701.9L343.1 703.5C343 704.4 343 705.3 343.1 705.5C343.3 705.9 345.5 706 356.6 705.9L369.8 705.8L369.9 704.3ZM294.4 697.8C293.8 697.3 293 696.3 292.7 695.4C292 694 292 693.2 292 680.7C292 670.3 292.1 667.3 292.4 667.1C293.1 666.5 310 667.1 312 667.8C316.7 669.3 319.9 672.2 321.5 676.5C322.4 678.9 322.4 685.8 321.5 688.2C320.8 690 319.2 692.8 318.4 693.8C317.6 694.7 314.3 696.8 312.9 697.3C310.3 698.2 306.1 698.7 300.8 698.7C295.6 698.7 295.5 698.6 294.4 697.8ZM371.2 671.7C371.1 671.5 371.1 671.1 371.3 670.8C371.5 670.4 372.8 666.9 374.3 662.8C375.8 658.8 377.3 655.1 377.5 654.5C377.7 653.9 378.2 652.9 378.5 652.2C378.8 651.5 379 650.7 379 650.4C379 650.1 379.2 649.5 379.5 649.1C379.8 648.8 380 648.3 380 648C380 647.7 380.2 647.1 380.5 646.5C380.8 646 381 645.4 381 645.3C381 645.1 381.2 644.5 381.5 643.9C381.7 643.3 382 642.4 382.1 641.9C382.6 639.9 384 641.7 385 645.5C385.1 646.1 385.4 646.8 385.6 647.2C385.8 647.5 386.4 649.2 387 650.8C387.6 652.5 388.2 654.4 388.5 655C388.7 655.6 389.2 656.8 389.4 657.5C389.7 658.2 390.4 660.2 391 661.8C391.6 663.5 392.2 665.1 392.4 665.5C392.5 665.9 392.8 666.6 393 667.2C393.1 667.7 393.6 668.9 393.9 669.9C394.3 670.8 394.5 671.7 394.4 671.8C394.1 672.2 371.4 672 371.2 671.7ZM461.7 662.1C461.5 662 461.3 656.6 461.3 647L461.3 632L462.2 631.8C462.7 631.7 466.3 631.7 470.3 631.8C476.9 632 477.5 632 479.2 632.8C481.7 633.9 483.7 635.9 484.9 638.4C487.1 643 487.3 648.6 485.4 653.2C484.6 655.3 481.8 658.4 479.9 659.6C476.4 661.7 475.1 662 468.2 662.1C464.8 662.1 461.8 662.1 461.7 662.1ZM292.4 658.9C292.1 658.6 292 655.2 292 645.5C292 634.1 292.1 632.4 292.5 632C292.9 631.7 294.8 631.6 301 631.8L308.9 631.9L311 633C313.7 634.3 314.4 635 315.8 637.3C317.3 639.8 317.8 642 317.8 645.2C317.8 648.4 317.3 650.5 315.8 653.1C314.5 655.2 313 656.5 310.2 657.8C308.4 658.7 307.7 658.8 303.2 659C295.6 659.4 292.9 659.4 292.4 658.9ZM294.2 607.2C298.1 606.6 301.7 605.6 304.3 604.4C305 604.1 306 603.6 306.7 603.4C309.6 602 314.9 598.4 317.8 595.7C319.5 594.1 323 589.5 324.5 586.9C325.7 584.7 327 581.1 327 579.7C327 578.2 326.2 577 325.3 577C324.2 577 323.1 577.9 320.1 581.8C315.5 587.5 311.9 590.5 307 592.8C301.3 595.4 292.5 596.7 287 595.7C286.2 595.5 284.6 595.2 283.5 595C277.6 594 270 590.5 264.5 586.4C261.1 583.8 255.8 579.1 254.8 577.8C254.3 577.1 253.7 576.4 253.5 576.2C252.9 575.6 248.2 569.3 246.6 566.8C244.2 563.1 242.1 559.5 240.7 556.4C238.1 551.2 236.4 547.3 236 546C235.8 545.5 235.4 544.3 235 543.3C233.5 539.4 230.8 530.8 229.5 526C229.2 524.8 228.8 523.4 228.7 522.8C228.5 522.3 228.1 520.5 227.7 518.8C227.3 517.2 226.8 515.3 226.7 514.6C226.5 514 226.3 513.2 226.3 512.9C226.3 512.6 228 511.5 230.9 510.1C233.4 508.8 236 507.4 236.7 507.1C237.3 506.7 238.1 506.2 238.5 506C238.9 505.9 239.7 505.3 240.4 504.9C241.1 504.4 241.8 504 241.8 504C242 504 248 500 251 497.9C256.6 493.9 268.1 484.1 271.8 480C272.7 479 277 474.5 281.3 470C285.7 465.5 292.4 458.5 296.3 454.4C310.3 439.8 317.4 434.5 325.2 432.9C327.6 432.4 332.9 432.8 334.5 433.5C336.2 434.3 338.6 436 339.5 437C341.1 438.8 343.3 439.2 344.2 437.8C345.8 435.3 342.8 429.3 338.4 426.2C335 423.9 332.5 423 328.2 422.8C322.3 422.4 317.8 423.5 311.2 426.7C304 430.2 302.9 431.2 279.3 454.8C254.5 479.7 248.6 485.1 238.3 492.4C234.2 495.3 227 499.7 223.3 501.6C222.5 502 220.9 502.9 219.8 503.5C214.6 506.3 210.7 508.3 210.4 508.3C209.8 508.3 210 507.2 211 504.8C211.5 503.5 212.4 501.3 213 499.9C213.5 498.5 214.5 496.2 215 494.8C215.6 493.3 216.3 491.6 216.5 491C217.1 489.5 218.9 484.8 219.5 483.5C219.7 482.9 220.2 481.8 220.5 481C220.8 480.2 221.3 479.1 221.5 478.5C221.7 477.9 222.7 475.6 223.7 473.3C224.6 471 225.8 468.3 226.2 467.3C226.7 466.3 227.2 465.1 227.5 464.5C227.7 463.9 228.2 462.8 228.6 462C229 461.2 230.3 458.2 231.4 455.5C232.6 452.8 233.9 449.8 234.3 448.8C234.8 447.9 235.3 446.7 235.5 446.2C235.8 445.6 236.3 444.5 236.7 443.6C237.4 442 237.3 442 241.5 441.5C246.4 440.9 248.3 440.4 251.5 438.8C253.7 437.7 255.2 436.2 256.2 434.2C257.4 432 257.5 427.9 256.4 425.8C254.3 421.8 249.9 420 245.5 421.6C241.1 423.1 235.5 427.6 231.9 432.4C230.9 433.8 229.9 434.8 229.4 434.9C229 435 225.9 435 222.6 434.8C214.2 434.5 201.2 434.5 195.2 434.9C189.5 435.3 177.1 437 174.8 437.7C174.3 437.8 172.4 438.3 170.8 438.7C169.1 439 166.8 439.7 165.8 440C164.7 440.4 163.4 440.8 162.8 441C160.7 441.6 155.8 443.6 153.3 444.9C149 447.3 147.9 447.9 145.8 449.3C136.4 455.8 129.9 464.5 126.6 475.2C124.6 481.6 125 491.6 127.6 497.7C131.1 506 137.1 511.7 144.9 514.2C149.9 515.8 157.4 515.7 162.2 514C163.3 513.6 164.5 513.2 164.8 513.1C165.2 513 166.8 512.1 168.3 511.2C173.3 508.3 177.6 503.3 179.9 497.7C181.9 492.7 182.2 491.4 182.2 485C182.1 479.7 182.1 479 181.4 477.3C180.4 474.9 179.2 473.4 177.8 472.8C176.8 472.4 176.5 472.4 175.7 472.8C174.4 473.5 174.2 474.2 174.7 477.3C175.4 481.3 175.3 488.1 174.5 490.7C173.7 493.4 171.7 497.2 169.9 499.6C164.7 506.4 155.4 509.2 148.7 505.9C144.6 503.9 142.1 500.5 140.6 494.8C139.6 491.1 139.6 484.9 140.6 480.9C142.4 473.8 146 467.6 151.8 461.8C156.9 456.7 162.5 453 169 450.5C169.8 450.2 170.9 449.8 171.3 449.6C173.9 448.6 178.4 447.3 182.2 446.5C183.6 446.2 185.7 445.8 186.9 445.5C188.2 445.2 189.8 445 190.6 445C191.3 445 192.3 444.9 192.8 444.7C195.2 443.8 224.3 442.1 224.3 442.9C224.3 443.2 221.7 448.4 217.5 456.5C215.9 459.6 213.4 464.4 211.9 467.2C210.5 469.9 204.3 482.3 198.1 494.7C185.8 519.4 183.8 523.5 183.2 524.5C183 524.9 181.9 526.8 180.7 528.7C177.6 533.9 175.7 536.7 171.7 542.2C167.5 548.1 159.2 556.7 153.3 561.4C146.3 567.1 137.4 572.2 129.2 575.2C126.5 576.2 121.3 577.7 119.2 578C118.2 578.1 116.5 578.4 115.3 578.7C112.5 579.2 102.1 579.2 99.2 578.7C94.6 577.8 91.8 577.2 89.3 576.3C83 574.1 78.8 571.5 74.5 567.2C66.9 559.6 63.3 551.4 63.3 541.2C63.3 531.7 66.5 523.5 72.7 517.1C74.5 515.3 78.5 512 80.5 510.8C82.1 509.8 86.2 508 89.6 506.7C91.7 505.9 92.7 503 91.4 501.6C90.6 500.7 86.6 500.8 83.7 501.7C77.4 503.9 70.2 508.4 65.1 513.5C59.1 519.6 56.2 524.8 53.7 534.2C51.9 541 52.8 552.1 55.5 558.6C55.8 559.1 56 559.7 56 559.8C56 560 56.5 561.1 57.2 562.4C62.3 572.6 71.2 581.1 82 586.4C86 588.3 87.2 588.8 92.7 590.5C94.3 591 97.8 591.7 101.9 592.5C107.7 593.6 120.2 593.5 126 592.3C133.7 590.8 135.6 590.3 140.2 588.7C145.7 586.8 146 586.7 149.8 584.8C161.3 579.3 169.4 572.9 179.4 561.5C187.3 552.4 190.9 547.2 195 538.5C196.2 536.1 198.7 530.8 200.8 526.7C202.8 522.5 205.2 517.4 206.2 515.3C209.3 508.8 209.5 508.6 209.8 511.7C210 514 210.8 518.9 211.4 522.2C211.6 523.3 211.9 524.9 212 525.8C212.3 527.8 213.1 531.3 213.6 533.3C213.9 534.2 214.3 535.7 214.6 536.8C215.3 539.8 217.7 547.5 218.6 549.7C218.8 550.1 219.2 551.2 219.5 552C220.9 555.8 221.7 557.4 224.1 562.3C230.5 575.6 239.5 587.1 250.1 595.6C252.6 597.6 258.2 601.2 260.7 602.4C266.7 605.2 271.4 606.6 277 607.3C278.6 607.5 280.3 607.7 280.8 607.8C282.7 608.1 291.1 607.7 294.2 607.2ZM106.7 571.2C106.7 570.9 106.5 570.4 106.3 570.1C106.1 569.6 104.9 567 102.3 561.5C100.9 558.4 100 556.3 98.5 552.7C97.6 550.6 96.7 548.4 96.5 547.8C96.3 547.3 95.8 546.2 95.5 545.3C95.2 544.5 94.7 543.4 94.5 542.8C93.5 540.4 90.8 533.1 88 524.5C86.7 520.6 85.5 517.4 85.4 517.3C85.1 517 81.7 519.1 79.5 520.9C78.3 521.9 76.6 523.6 75.7 524.8C73.9 527 73.6 528 74.5 530.2C74.7 530.9 75.2 532.4 75.5 533.5C75.8 534.6 76.5 536.6 76.9 537.8C77.4 539.1 77.8 540.6 78 541.2C78.2 541.7 78.6 543 79 544C79.4 545 79.8 546.2 80 546.7C80.2 547.1 80.6 548.3 81 549.3C81.4 550.3 81.8 551.5 81.9 551.8C82 552.2 82.3 552.8 82.6 553.2C82.8 553.5 83 554 83 554.2C83 554.5 83.4 555.6 84 556.7C84.5 557.9 85.4 559.8 85.9 561C86.4 562.2 87.4 564.3 88.2 565.8C89.4 568.3 89.6 568.5 91.2 569.1C93.8 570.1 97.4 571 98.7 571C99.3 571 100.1 571.2 100.5 571.3C100.9 571.5 102.4 571.6 103.9 571.6C106.2 571.7 106.7 571.6 106.7 571.2ZM426.3 566.7C427 566.5 428.9 566.2 430.6 566C432.3 565.8 434 565.5 434.4 565.4C434.8 565.2 436 564.8 437 564.5C439.6 563.6 443.5 561.6 445.5 560.1C449.2 557.3 450.5 556 454.9 550.4C457.4 547.3 459.6 544.8 459.7 544.9C459.8 545.1 460 547 460.1 549.3C460.3 553.6 460.6 554.9 462.2 558.1C463.4 560.6 464.9 562.2 466.9 563.6C471.9 566.7 476.4 566.8 482.2 563.9C486.5 561.7 488.2 560.1 494.6 552.2C496.9 549.4 499.1 546.7 499.5 546.2C499.9 545.7 500.4 545.4 500.6 545.5C500.9 545.6 501 547.1 501 549.3C501 554.4 502.3 558.2 505.1 561.2C508.2 564.6 511.4 566 516 566C523.5 566 530.5 561.3 538.8 550.8C540.1 549.1 541.3 547.7 541.5 547.8C541.7 547.8 541.9 548.5 542 549.2C542.6 553.2 544.8 557.6 547.8 560.5C551.3 563.9 554.7 565.5 560 566C572.1 567.3 582.7 561.3 593.5 547.2C594.7 545.6 598.8 539.4 599.1 538.7C599.2 538.4 599.6 537.7 600 537.2C601.2 535.3 604.7 528.4 606.7 524.2C607.4 522.5 608.3 520.6 608.6 520C609.2 518.6 609.7 517.5 611 514.2C611.6 512.7 612.4 510.8 612.7 510L613.4 508.6L617.1 508.8C621.6 509 624 509.7 625.7 511.4C627.1 512.7 627.4 514.2 626.5 515.5C626.1 516.1 625.5 517.2 622.8 522.2C622.1 523.4 621.1 525.2 620.6 526.2C618.9 529.2 615.4 536.5 614.8 538.2C612.2 545.9 611.8 552.4 613.6 557.8C614.8 561.4 616.8 563.6 620.3 565.2C621.8 565.9 622.6 566 625.1 566C627.1 566 628.8 565.8 629.9 565.5C635.8 563.5 644.4 554.3 651.2 542.7C652.8 539.9 656 533.7 658 529.2C659.3 526.3 659.3 524.1 657.9 523.4C656.3 522.4 655.5 523.1 652.3 528.2C650.7 530.7 649.2 533.1 649 533.5C648.8 533.9 648.4 534.6 648.1 535.1C647.8 535.6 645.9 538.5 644 541.6C638.8 550.1 638.6 550.5 637.7 551.5C637.2 552.1 636.2 553 635.5 553.6C632.6 555.9 630.1 556.6 628.7 555.4C626.9 553.9 627.3 547.1 629.5 541.7C629.8 541.1 630 540.5 630 540.3C630 540.1 631.8 536.3 634 531.7C643.4 512.7 643.2 513.1 644.4 509.5C645 508 645.1 506.7 645.2 504.3C645.2 501.3 645.1 501 644.3 500.2C643.4 499.2 643.1 499.2 635.5 500C633.9 500.2 630 500.3 626.9 500.3C621.9 500.3 621.3 500.3 621.3 499.8C621.3 499.5 621.6 498.9 622 498.5C622.3 498.1 623.1 496.9 623.7 495.7C626.6 489.9 626.9 482.4 624.2 479.4C621.7 476.6 617 476.4 614.2 479C612.8 480.3 612.2 481.8 611.5 486C610.9 490.2 609.9 495.1 609.2 498C608.2 502 606.2 508.7 605.4 510.7C605.2 511.1 604.8 512.2 604.5 513C604.2 513.8 603.7 515 603.5 515.6C603.2 516.2 602.8 517.2 602.5 517.8C600.9 521.6 596.2 530.8 593.8 534.8C590.2 540.6 587.7 543.9 583.8 548C578.1 554 573.1 556.9 567.5 557.6C564.1 558 559.7 555.4 558.1 552.1C557.2 550.3 557.2 549.8 557.1 545.4C557 541.7 557.1 540.2 557.5 539C557.8 538.1 558 537.1 558 536.8C558 535.9 559 535 559.9 535C561.2 535 566.9 533.5 569.8 532.4C573.7 531 579.5 528 582.6 526C587.4 522.7 591.3 518.3 593.5 513.8C599.5 501.4 593.9 491.8 581.2 492.8C577.5 493.1 574.8 493.9 570.7 496C560.9 500.9 550.9 512.6 545.7 525.3C544.8 527.3 541 535.1 539.9 537C534.6 546.2 530.3 551.7 525.9 554.7C524.2 555.9 523.6 556.1 521.9 556.2C519.4 556.4 518.3 556.1 517.2 554.6C516.1 553.1 515 549.2 515 546.6C515 544.8 516.7 536.9 518.3 531C518.5 530.4 518.8 529.1 519 528.3C519.3 526.9 519.8 526.2 524.1 522C529.1 517 530.6 515.2 536.1 508.7C541.5 502.1 551.7 487.4 553.9 483C554 482.7 554.8 481.4 555.6 480C557.5 476.9 563 465.6 563 464.9C563 464.7 563.1 464.3 563.3 464.1C563.7 463.7 565.3 458.7 566.5 454.1C566.8 452.8 567 450.6 567 447.6C567 443.4 566.9 442.9 566.1 441.2C564.5 437.8 562 436.2 558 436.3C552.5 436.3 547.8 439.3 541.1 447.1C536.5 452.4 534.5 455.6 527.8 468.8C519.4 485.5 519.6 485 519.2 485.2C518.4 485.5 510.3 484.8 510 484.4C509.7 484.2 509.7 483.8 510.1 483.1C515.1 473.4 516.5 470.4 518.3 464.8C520.1 459.3 520.5 453.7 519.4 450.3C518.1 446.3 514.3 443.9 510.5 444.7C503.3 446.3 496.2 453.7 488.9 467C486.8 470.9 485.5 473.3 484.9 474.4C484.5 475.3 484.1 475.7 483.5 475.7C483.1 475.7 482.6 475.5 482.5 475.4C482.4 475.2 481.9 475 481.4 474.9C480.9 474.8 479.7 474.4 478.7 474C477.7 473.6 476.4 473.2 475.8 473C475.3 472.8 474 472.4 473 472C472 471.6 470.7 471.1 470.2 471C469.2 470.7 464.3 469 461.3 467.9C460.5 467.5 459.4 467.2 458.8 467C458.2 466.9 457.6 466.6 457.3 466.5C456.6 466.1 453.6 465.3 450.5 464.8C445.1 464 436.2 464.4 433 465.6C429.9 466.8 428.9 467.3 427 468.5C424.3 470.3 422.4 472.3 421.2 474.7C420.1 477.1 420.1 478.8 421.2 479.8C421.6 480.3 422.2 480.7 422.4 480.7C423 480.6 424.6 479.8 428.2 477.3C430 476.1 432.2 474.9 433 474.6C435.1 473.8 439.3 473.2 442.8 473.2C445.7 473.2 452.2 474 453 474.5C453.1 474.6 453.9 474.8 454.7 475C455.5 475.2 459.7 476.5 464 478C468.3 479.5 472.3 480.8 472.8 481C473.4 481.1 474.3 481.4 474.8 481.6C475.4 481.8 476.7 482.3 477.8 482.6C478.9 483 480 483.5 480.1 483.7C480.3 484 479.6 485.8 478.2 488.7C475 495.3 474 497.6 474 498.1C474 498.3 473.9 498.7 473.7 498.8C473.6 499 473.3 499.6 473.1 500.2C472.9 500.7 472.4 501.9 472.1 502.8C471.7 503.8 470.4 507.2 469.2 510.5C468 513.8 466.8 516.9 466.5 517.5C466.3 518.1 465.8 519.1 465.6 519.8C462.7 527.4 461 530.7 455.1 539.6C450.2 547 448 549.7 445.1 552C442.4 554.2 439.4 556.1 439.2 555.7C439.1 555.6 439.5 554.9 440 554.3C444.7 548.5 447.3 540.2 446.4 533.4C445.9 530.1 445.4 528.3 443.9 524.7C443 522.3 442.7 521.7 441.5 518.9C437.2 508.8 436.9 507.6 436.9 503C436.8 498.7 437.4 497 439.2 495.2C441.3 493.1 443.2 492.9 446.1 494.3C448.1 495.3 449.4 495.2 450.3 494.1C451.2 493 451.2 491.9 450.2 490.4C448 487.1 442.7 485.6 437.8 486.8C434.9 487.6 432.7 489 429.8 491.8C426.3 495.3 425.1 497.3 419.3 508.5C412.5 521.8 410.9 525 410 526.5C408.2 529.7 405.3 533.7 402.9 536.2C400.5 538.8 399.9 539.8 398.8 542.6C397.4 546.5 392.3 553 389.3 555C387.7 556.1 385 556.4 384.4 555.6C382.6 553.3 383.1 547.2 385.8 540.3C386.2 539.2 386.4 538.8 387.6 536C387.9 535.4 388.3 534.3 388.6 533.8C389.4 531.6 389.9 530.5 390.7 528.7C391.2 527.7 392.2 525.5 392.8 523.8C393.5 522.2 394.4 520.1 394.8 519.2C396 516.7 396.7 514.9 397 514C397.2 513.5 397.6 512.4 398 511.4C399.1 508.3 400 504.4 400 502.4C400 499.8 398.7 497.2 396.7 495.8C395.3 494.9 395.1 494.8 391.9 494.8C388.3 494.8 387.7 495 383.5 497.1C380.9 498.4 379.1 499.6 375.5 502.5C371.9 505.5 363.5 514 360.7 517.8C360.3 518.3 359.6 518.8 359.3 519C358.7 519.4 358.6 519.3 358.8 518.6C358.9 518.2 359.5 516.8 360.1 515.5C361.1 513.3 361.6 512.1 364 507C364.5 505.8 365.3 504 365.8 503C366.2 502 367.1 500 367.8 498.5C368.5 497.1 369.1 495.5 369.1 495L369.2 494.2L364.7 494.1C358.7 493.9 355.3 494.8 353.6 496.8C353.3 497.2 352.2 499.3 351.1 501.5C350 503.7 346.4 510.8 343.2 517.3C340 523.8 336.8 530.1 336.1 531.3C334 535.1 333.6 535.8 333 536.8C332.6 537.4 332.2 538.1 332 538.5C331.5 539.6 326.7 546.7 324.7 549.2C320.1 555 315.7 557.4 313.8 555.2C312.4 553.7 312 552.5 312 549.5C312 546.1 312.7 543.7 315.5 537.2C315.8 536.6 316.7 534.4 317.5 532.3C318.4 530.2 319.3 528 319.5 527.4C320.7 524.7 321 524 322 521.5C322.6 520 324.1 516.7 325.3 514.2C326.6 511.6 328.5 507.6 329.7 505.2C330.8 502.8 332.4 499.5 333.2 497.8C334.1 496.1 334.6 494.5 334.5 494.3C334.3 494.1 333.7 494 332.9 494.1C332.1 494.2 328.8 494.5 325.5 494.8C321.1 495.1 319.2 495.3 318.4 495.8C317.4 496.3 315.8 498.4 314.6 501C314.3 501.6 312.9 504.6 311.4 507.7C309.9 510.7 308 514.8 307 516.8C303.3 524.6 300.5 529.9 298 534C297.7 534.6 297.2 535.4 297.1 535.7C296.4 537.2 288.5 549.1 287 550.8C285.4 552.7 283 554.6 281.4 555.5C279 556.7 276.5 555.7 275.7 553.1C274.9 550.2 275.3 546.7 277.1 542.3C277.6 541 278.5 538.7 279.1 537.3C279.6 536 280.3 534.4 280.5 533.8C280.7 533.3 281.4 531.6 282 530.2C282.6 528.7 283.3 527.1 283.5 526.5C283.7 525.9 284.2 524.8 284.6 523.8C285 522.9 286.8 519 288.7 515.2C290.5 511.3 293.2 505.8 294.6 503C295.9 500.2 297.4 497.1 297.9 496.2C298.8 494.4 298.5 493.8 297.2 494.2C296.8 494.3 293.6 494.6 289.9 494.8C281 495.3 281.7 494.7 276.6 506.3C276.3 507.2 275.5 508.8 274.9 510C274.4 511.2 273.7 512.6 273.5 513.2C273.2 513.7 272.3 515.6 271.5 517.4C270.7 519.2 270 520.8 270 520.8C270 521 266.7 528.3 265.5 530.8C262.1 538 261.2 541.3 260.7 547.5C260.2 554.4 261.1 558 264.2 561.3C267.1 564.5 270 565.7 274.4 565.7C278.9 565.7 282.9 564.3 286.3 561.7C287.1 561 289.9 557.8 292.5 554.3C297.2 548.1 297.9 547.2 298.4 547.5C298.5 547.6 298.6 548.9 298.6 550.4C298.6 555.3 299.4 558.3 301.4 560.9C304.2 564.6 308.7 566.4 313.3 565.7C317 565.1 319.9 563.3 324.3 559.2C326.3 557.2 328.1 555.7 328.2 555.8C328.4 556 328 557.5 327 560C325.6 563.6 325.3 564.7 325.6 565C325.7 565.2 328.8 565.2 332.3 565.1L338.8 564.9L339.9 563.8C340.9 562.6 342.9 558.9 344.4 555.2C346 551.5 350.1 543.7 353.3 538.3C355.4 534.8 357.9 531.2 360 528.5C360.6 527.8 361.8 526.2 362.7 525C365.2 521.8 371.8 514.6 374 512.7C375.8 511.1 378.2 509.7 379.9 509.2C380.8 508.9 381.7 509.7 381.9 511.1C382.1 512.2 381.6 513.4 377 522.6C371 534.6 371.3 534 370.1 537.8C368.6 542.8 368.3 544.9 368.1 550.1C368 554.3 368 555.2 368.6 557.1C370.4 563 375.3 566.3 381.6 565.9C386.5 565.6 391.6 562.8 396.8 557.6C398.5 555.8 399.9 554.7 400.1 554.8C400.4 554.9 400.9 555.6 401.3 556.3C403.5 560.5 407.1 563.7 411.5 565.2C412.4 565.5 414.4 565.9 415.9 566.2C417.5 566.4 418.8 566.7 418.9 566.8C419.2 567.1 425 567 426.3 566.7ZM413.5 558.5C411.1 557.2 410 555.3 410 552.4C410 550.1 410.4 549.3 411.1 550C411.4 550.2 411.7 550.7 411.8 551.1C412.2 552.4 414.5 556.7 415.2 557.5C415.7 558 416 558.5 416 558.7C416 559.2 414.6 559.1 413.5 558.5ZM421.1 554.9C417.7 551.7 416 547.3 416 541.9C416 539.5 415.9 538.7 415.2 537.4C414.8 536.5 414.1 535.5 413.7 535.2C412.8 534.4 412.8 533.8 413.9 531.8C416.1 527.6 417.9 524.3 419.4 521.5C420.2 519.9 421.7 517.1 422.7 515.3C423.6 513.6 424.8 511.2 425.4 510.1C426 508.9 426.5 508.1 426.7 508.2C427 508.5 427.5 511.1 428 514.4C428.2 515.7 428.4 516.8 428.5 516.9C428.5 517.1 428.8 518.3 429 519.7C429.2 521 429.6 523.8 430 525.8C430.7 529.3 431.4 535.2 431.4 537C431.4 538.9 430.7 543.9 430.2 545.5C429.5 548 427.8 551.2 425.9 553.8C423.5 557 423.4 557.1 421.1 554.9ZM477.1 555.2C474 553.5 473.4 546.8 475.7 538.8C476.3 536.6 477 534 477.5 532C477.8 530.8 478.2 529.1 478.5 528.2C478.7 527.2 479.1 525.9 479.3 525.1C479.6 524.2 480.4 523 482.1 521.1C490.2 512.6 497.3 503.6 503.9 493.4C504.8 492.1 505.7 491 506 490.9C507.1 490.7 515.7 492 516 492.4C516.3 492.9 515.7 495 513.4 500.8C512.8 502.6 512.3 503.9 511 507.5C509.7 511.2 509.2 512.5 508.6 514.2C508.3 514.9 507.6 516.9 507 518.5C504.5 525.8 503.4 528 498.9 535.5C492.6 545.9 486.2 553.3 481.6 555.3C480.4 555.8 478 555.8 477.1 555.2ZM561.1 528.5C560.8 527.8 564.5 520.6 567.7 515.8C571.3 510.4 576.2 505.1 580.4 502.3C582 501.2 582.6 501 584 501C585.3 501 585.8 501.2 586.3 501.7C587.7 503.2 586.8 509.5 584.8 512.5C584.4 513.2 584 513.8 584 513.9C584 514 583.3 514.9 582.5 516C578.7 521 571.9 525.5 565.1 527.7C563.9 528.1 562.6 528.5 562.3 528.7C561.5 529.1 561.3 529.1 561.1 528.5ZM524.7 511.5C524.7 511 525.2 509.6 526.3 506.8C526.5 506.5 526.9 505.4 527.3 504.5C528.2 502.1 530.3 497.1 531.2 495.2C534 488.8 537.6 481.1 538.8 478.7C540.4 475.6 543.8 469 545.6 465.8C546.6 464 547.9 461.7 548.4 460.7C550 457.8 550.9 456.4 553.4 453.1C555.8 449.9 557.6 448.2 559.1 447.8C559.8 447.7 560 447.8 560.3 448.6C560.5 449.2 560.6 449.8 560.5 450C560.4 450.2 560.1 451.3 560 452.4C559.7 454.3 558.3 459.1 557.3 461.5C555 467.2 550.4 476.1 546.9 481.9C545.8 483.6 545 485.1 545 485.2C545 485.3 544.7 485.8 544.4 486.3C544 486.8 542.7 488.7 541.4 490.7C538.9 494.6 535.5 499.5 533.9 501.5C531.5 504.6 525.2 512 525 512C524.8 512 524.7 511.8 524.7 511.5ZM486 507.1C486 506.7 486.4 505.4 487 504.1C487.9 501.9 489 499.2 491 494.2C493.1 488.8 493.4 488.2 493.7 487.9C493.8 487.7 495.1 487.9 496.5 488.3C498.3 488.9 499 489.2 499 489.7C499 490.9 487.5 507.2 486.3 507.6C486.1 507.7 486 507.4 486 507.1ZM68.7 500.9C69.6 500.4 72.9 498.6 75.8 497C76.8 496.5 78.1 495.7 78.9 495.3C79.7 494.9 80.4 494.5 80.5 494.3C80.6 494.2 80.4 492.3 80 490.1C79.6 487.9 79.2 485.2 79 484.1C78.9 483 78.7 481.9 78.5 481.7C78.4 481.5 78.2 480.2 78 478.8C77.9 477.3 77.4 473.8 77 470.9C75.4 459.1 75.2 455.5 75.2 440.2C75.2 428.6 75.3 424.7 75.7 421.5C76.3 417.4 77 414 77.6 412C79 407.5 79.4 406.4 80.4 404.4C84.5 395.7 90.7 389.3 97.7 386.8C99.7 386 104.6 385 106.1 385C106.9 385 108.1 385.2 108.8 385.4C109.6 385.6 110.7 385.8 111.3 386C113.6 386.5 116.5 388.2 118.8 390.4C121.4 392.9 122.9 395.1 124.2 398.5C125 400.6 125.1 401.3 125.1 405C125.2 409.3 124.8 411 123.1 414.3C122.4 415.9 118.5 419.7 117 420.4C112 422.7 107.1 421.9 104.2 418.3C102.2 415.7 101.5 412.1 102.5 409.4C103.2 407.5 104 404.5 104 403.9C104 403.3 102.8 402.3 101.6 401.7C100.5 401.3 98.5 401.7 97.1 402.6C95.4 403.7 93.3 407.4 92.6 410.5C91.9 413.7 91.9 414.6 92.6 417.3C93.6 421.4 94.8 423.5 97.7 426.3C101.6 430.3 105.9 432 111.7 432C121.1 432 129.7 426.5 133.8 417.9C136.1 413.1 136.8 409.7 136.8 404.7C136.8 394.1 132.2 384.7 123.8 378.3C121.8 376.8 117.5 374.6 115 373.7C113 373 108 372.2 105.5 372.2C97.6 372.2 88.8 375.6 82.1 381.3C80.9 382.2 80.2 382.6 80 382.4C79.6 382.1 80.1 378.9 81.2 373.3C81.5 372 81.8 370.1 82 369.1C82.1 368.2 82.4 366.9 82.6 366.3C82.8 365.7 83.2 364 83.5 362.7C85.8 352.1 92 332 95.5 323.8C95.7 323.3 96.2 322.2 96.4 321.5C97.2 319.4 101.3 309.7 102.6 307C104.2 303.5 111.2 289.6 112.5 287.2C113.1 286.1 113.8 284.9 113.9 284.7C114 284.4 114.8 283.1 115.6 281.7C116.4 280.4 117 279.2 117 279.1C117 279 117.4 278.3 117.9 277.5C118.4 276.8 119 275.9 119.1 275.7C119.2 275.4 119.6 274.8 119.9 274.3C120.2 273.8 120.9 272.7 121.5 271.8C124.4 266.8 131.4 256.7 136.3 250C139.9 245.2 150.4 232.3 152.6 230C152.9 229.7 154.2 228.2 155.5 226.8C158.6 223.3 172.5 209.4 175.8 206.5C177.2 205.2 178.9 203.7 179.5 203.2C180 202.6 181 201.8 181.5 201.3C182.1 200.9 184.9 198.6 187.6 196.3C192.4 192.2 204.8 182.7 209.8 179.2C211.1 178.4 214.7 175.9 217.9 173.8C224.3 169.6 224.5 169.3 224.3 166.1C224.1 163.9 223.5 162.8 221.8 161.7C220.1 160.6 218.4 160.8 216 162.3C214.9 162.9 213.7 163.7 213.4 163.8C213.1 164 211.9 164.8 210.7 165.6C209.6 166.4 208.6 167 208.5 167C208.3 167 202.6 171 198.2 174.1C196.6 175.2 195 176.4 194.6 176.7C189.9 179.8 176.6 190.5 169.3 197C156.9 208.1 139 226.7 130.6 237.4C129.3 239.1 123.1 247.3 117.4 255C116.6 256 109.8 266.3 108.4 268.5C107.5 269.9 105.8 272.8 103.8 276.2C103.5 276.5 103.3 277.1 103.1 277.3C103 277.6 102.6 278.4 102.2 279C99.1 284 91.7 298.5 88.2 306.5C87.7 307.6 87 309.2 86.6 310C85.6 312.1 85.2 313.2 84 316.1C81.8 321.8 80.9 323.9 80.4 325.2C80.2 325.9 79.8 326.9 79.6 327.3C79.4 327.8 79.1 328.6 79 329.2C78.8 329.7 78.4 331 78 332C77.6 333 77.2 334.3 77 334.8C76.9 335.4 76.6 336.2 76.4 336.7C76.2 337.1 75.8 338.3 75.5 339.3C75.2 340.3 74.6 342.4 74.1 343.8C73.7 345.3 73.1 346.9 73 347.5C72.9 348.1 72.5 349.3 72.2 350.3C70.9 355 69.2 361.6 69 362.8C68.8 363.6 68.5 365.1 68.2 366.3C66.8 372.4 66.6 373.8 65.9 377C65.6 378.9 65.1 381.2 65 382.2C64.8 383.1 64.6 384.6 64.4 385.5C64.2 386.4 63.8 389 63.5 391.2C61 410.4 60.6 417 60.6 436.5C60.6 450 60.9 459.2 61.6 464.7C61.8 466.2 62 468.6 62.1 470C62.2 471.4 62.5 473.6 62.7 475C63.8 483.7 64.1 485.4 64.5 487.7C64.8 489 65.2 491.5 65.5 493.2C66.1 496.7 67 500.7 67.2 501.1C67.4 501.4 67.7 501.4 68.7 500.9ZM304.1 485C306.9 484.2 309.7 480.2 309.7 477C309.7 474.5 307.9 471.4 305.8 470C301.7 467.3 296.7 468.4 293.9 472.6C293.2 473.7 292.9 474.6 292.8 476.1C292.5 479.3 293.1 480.8 295.3 483C297.9 485.6 300.3 486.1 304.1 485ZM328.4 485C331.4 484.2 334 480.4 334 477C334 472.9 331.4 469.8 327.1 468.7C325.7 468.4 325.1 468.4 323.7 468.8C321.4 469.5 320.7 469.9 319.3 471.4C318 472.8 317 475.3 317 477C317 478.4 317.9 481 318.9 482.3C319.7 483.4 321.7 484.8 322.9 485.1C324 485.4 327.1 485.3 328.4 485ZM502.3 482.3C501.9 482.2 500.6 481.8 499.4 481.5C497.2 480.8 496.8 480.5 497.3 479.9C497.4 479.7 498.3 478.1 499.2 476.3C500.2 474.6 501.6 472 502.3 470.5C503.1 469 504.4 466.6 505.2 465.2C509.1 457.7 509.2 457.6 511.1 456.6C512.4 455.9 512.5 455.9 512.9 456.5C513.5 457.3 513.2 461.4 512.5 463.1C512.3 463.7 511.8 464.8 511.6 465.5C509.5 470.9 503.9 482.7 503.4 482.6C503.3 482.6 502.8 482.5 502.3 482.3ZM409 409C417.8 408.7 431.1 407.8 432 407.4C432.3 407.3 433.8 407.1 435.5 407C438.8 406.7 442.4 406.2 445.7 405.5C446.9 405.3 448.4 405 449.2 404.8C449.9 404.7 450.9 404.5 451.5 404.3C455.7 403.2 456.7 402.9 457.8 402.4C464.8 399.8 466.9 397.1 464.2 394C462.4 392.1 458.3 390.2 451.8 388.6C450.7 388.3 449.2 387.9 448.5 387.7C447 387.3 442.7 386.5 439.8 386C438.9 385.8 437.5 385.6 436.7 385.4C435.8 385.2 433.7 384.8 432 384.5C422.5 382.8 420 382 415.8 379.4C410.7 376.1 407.8 372.3 405.6 366L404.8 363.8L404.8 342.8C404.9 320.3 405.2 314.6 407 300.5C407.7 295 410 289.7 413.9 284.4C414.9 283 422.2 275.3 430.1 267.2C438 259.1 445.6 251.3 447 249.8C448.4 248.4 451.7 245 454.3 242.3C466.1 230.4 471.7 224.7 473.5 222.7C474.6 221.5 487 208.7 501.2 194.2C515.3 179.7 527.1 167.5 527.4 167.1C528.2 165.8 528.5 163.5 527.9 162.4C527 160.7 526 160.2 520.2 158.6C515.7 157.3 514.2 157 509.8 156.5C507.3 156.2 504.1 155.8 502.8 155.6C501.6 155.4 499.2 155.2 497.5 155C495.8 154.9 494.3 154.7 494 154.5C493.7 154.4 491.8 154.2 489.8 154C487.8 153.8 483.8 153.3 480.8 153C477.9 152.6 473.5 152.1 471 152C468.5 151.9 466.2 151.7 465.8 151.5C464 151 422.6 149.7 407.5 149.7C399.1 149.7 399.3 149.6 400.2 152.1C400.5 152.9 400.8 153.8 400.9 154.2C401.4 156 401.5 156 410.1 156C429.3 156 472.7 157.7 475.5 158.5C475.9 158.7 477.9 158.9 480 159C487.2 159.5 502 161.2 503.3 161.7C503.7 161.9 504.6 162 505.3 162C506 162 507.3 162.2 508.2 162.5C509.1 162.8 510.2 163 510.6 163C511 163 511.7 163.2 512.2 163.4L513.2 163.7L512.2 164.2C511.6 164.4 509.6 164.8 507.7 165C505.8 165.2 504 165.5 503.8 165.6C503.7 165.7 502.3 165.9 500.8 166C499.4 166.2 497.3 166.4 496.2 166.6C491.2 167.4 478.2 168.6 468.7 169C465.5 169.1 462.6 169.3 462.3 169.4C461.3 169.9 432.5 170.7 417.5 170.8L402.2 170.8L401.2 168.2C400.7 166.7 400.2 165.1 400 164.7C399.8 164.2 399.4 163 399 162C398.1 159.5 396.7 155.8 396.2 154.2C395.9 153.4 395.4 152 395 151C394.6 150 394.2 148.8 394 148.3C393.8 147.9 393.4 146.7 393 145.7C392.6 144.7 392.2 143.5 392 143C391.8 142.5 391.4 141.3 391 140.3C390.6 139.3 390.1 137.9 389.8 137.2C387.3 129.6 386 127 383.5 124.5C380.8 121.7 378.7 121 373.3 121C370.3 121 369.3 120.9 369.3 120.6C369.3 120.2 378.2 109.5 381.5 105.9L382.7 104.7L385.7 104.7C389.2 104.7 390.1 104.3 391.4 102.4C391.9 101.7 392.7 100.9 393.2 100.5C394.1 99.8 394.2 99.2 393.5 98.9C393.2 98.8 393 98.4 393 98.1C393 97.8 392.8 97.3 392.4 96.9C391.9 96.3 391 96.1 391 96.7C391 97.3 388.5 99.7 387.4 100.2C385.8 100.9 384.6 100.8 382.2 99.8C380.9 99.3 379.3 98.9 378.1 98.9L376.2 98.8L375.6 97.2C375.3 96.2 375 95.1 375 94.6C375 94.2 374.8 93.1 374.6 92.3C374.1 90.8 374.2 90 374.7 90C374.8 90 377 89 379.5 87.8C382.1 86.5 384.6 85.5 385.3 85.5C385.9 85.4 386.6 85.4 386.8 85.4C387.2 85.3 387 84.1 386.5 83.9C386.3 83.8 386 83.4 385.9 82.9C385.7 81.6 384.1 81.7 379.5 83.5C377.8 84.1 370 88.2 369.5 88.7C369.2 89 369.6 91 370.5 95C371.7 99.8 372 101.6 371.8 102.1C371.6 102.6 369.4 103.8 369 103.5C368.7 103.3 368.3 101.7 367.5 98.3C367 95.9 366.2 92.7 365.7 91C365.4 90 364.1 89.7 362.2 90.4C360.7 91 355.3 92.6 352.2 93.5C351.1 93.8 349.6 94.3 349 94.5C348.4 94.7 346.9 95.2 345.8 95.5C343.5 96.2 341 96.9 339.2 97.5C338.4 97.7 337 98.2 336 98.5C332.1 99.6 329.2 100.6 325.7 102C324.7 102.4 323.5 102.8 323 102.8C322.2 102.8 322.2 102.7 322.1 101.2C322 100 321.5 98.9 320 96.4C319 94.6 318 92.9 317.9 92.7C317.8 92.4 317.4 91.7 317 91.2C316.6 90.6 316.2 89.9 316.1 89.7C315.7 88.7 302.9 67.5 302.3 66.7C301.6 65.8 301.5 65 302 65C302.3 65 303.4 66 304.7 67.3C306.2 68.9 308.9 72.6 313.5 79.5C317.1 85 320.6 90.3 321.3 91.3C322 92.3 323.2 94.1 324 95.4C324.9 96.8 325.8 97.9 326.2 97.9C326.5 98 327.3 97.8 328 97.6C328.6 97.3 330.1 96.8 331.3 96.5C332.5 96.2 334.1 95.7 334.8 95.5C336.5 95 338.9 94.2 341.5 93.5C342.6 93.2 344 92.7 344.7 92.5C345.3 92.3 346.4 92 347 91.9C349.3 91.5 349.3 91.3 348 84.3C347.6 82.4 347.2 80.1 347 79.2C346.9 78.2 346.4 75.9 346 73.8C345.6 71.8 345.2 69.6 345.1 69C344.5 65.1 342.7 62.9 336.6 58.9C335 57.8 334.5 57.6 334.3 58C333.9 58.5 334.1 63.6 334.7 69.7C335 73.7 334.9 78.8 334.3 82.3C333.9 84.4 333.2 84.9 333.1 83.1C333 82 331.1 72.3 330.5 69.5C330.1 67.6 330.1 67.3 330.7 65.6C331.4 63.5 331.3 63 329.8 60.7C329.4 60 329 59.1 329 58.8C329 57.9 331.3 54.7 332 54.5C332.4 54.4 332.9 54.4 333.2 54.6C333.6 54.8 334.9 55.1 336.1 55.4C337.9 55.7 338.7 55.7 339.9 55.4C342.3 54.8 343 53.8 344.5 50C345.8 46.5 346.4 45.6 348.2 44.6L349.8 43.7L350 39.3C350.1 36.8 350.3 34.6 350.5 34.4C350.7 34 350.9 33 351.7 25.3C351.9 23.4 352.3 20.8 352.7 19.5C353.6 16.1 353.5 14.7 352.3 13.1C351.4 11.7 350.8 11.4 345.8 9.2C344.7 8.7 343.2 8 342.5 7.7C337.5 5.4 335.6 5 330.7 5C326.1 5 324.7 5.3 320.9 7.2C318.7 8.3 315.1 11.8 314 14C312.2 17.6 312 18.7 312 28.4C312 39.2 312 39.2 308.4 42C303.9 45.4 301.2 47.3 298.1 49C297.6 49.3 294.8 50.8 291.8 52.3C285 55.8 283.2 57.2 281.1 60.4C279.7 62.6 279 65.7 278 74C277.8 75.2 277.6 76.8 277.4 77.5C277.2 78.2 277 79.6 277 80.4C277 81.3 276.9 82.3 276.7 82.6C276.4 83.2 276 87.7 275.3 100.5C275.1 104 274.8 107.7 274.6 108.7C274.4 109.7 274.1 111.2 274 112.2C273.8 113.1 273.4 115.2 273 116.8C272.1 120.7 271.4 123.8 271 125.7C270.9 126.5 270.6 127.8 270.4 128.5C270.2 129.2 269.8 131 269.5 132.5C269.2 134 268.7 135.9 268.5 136.9C268.2 137.8 268 138.9 268 139.3C268 139.6 267.8 140.7 267.5 141.5C266 146.8 265.6 150 266.4 150.6C266.9 151 268.3 151.5 271.3 152.5C273.4 153.2 274 153.6 274 154.2C274 155.3 276.7 159.1 279.4 161.8C281 163.4 282.3 164.9 282.3 165.1C282.3 165.5 275.6 164.7 273.8 164C273.4 163.8 272 162.7 270.7 161.5C268.6 159.5 268.1 159.2 266.7 159.1C264.6 158.9 261.5 160.2 259.8 162.1C258.7 163.3 258.6 163.5 258.8 164.8C259.1 166.5 259.6 167.2 265.4 173C268 175.7 271.1 178.9 272.3 180.2C274.1 182.1 320.8 230 352.8 262.7C373.4 283.7 373.5 283.8 376.4 290.1C378.7 294.8 379.4 298.1 380.2 306.2C380.5 309.3 380.9 313.9 381.2 316.5C381.6 320.1 381.8 326 381.9 341.9C382 361.5 382 362.8 381.4 364.9C380.1 369.5 377.9 373.1 374.5 376.3C370.2 380.4 366.6 382.1 359.8 383.5C358.4 383.8 356.1 384.2 354.8 384.5C353.6 384.8 351.9 385.1 351.2 385.2C350.4 385.3 349.4 385.5 348.8 385.7C348.3 385.8 346.5 386.2 344.8 386.5C336.3 388 332.4 389 327.7 390.7C325.4 391.6 322.6 393.4 322 394.4C321.2 395.7 321.2 396.7 321.8 398C323.4 401.1 333 404.5 344 406C345.4 406.2 346.9 406.5 347.5 406.7C348 406.9 349.3 407 350.3 407C351.3 407 352.7 407.1 353.3 407.3C354.7 407.7 367.8 408.7 376.8 409C387.2 409.4 399.4 409.4 409 409ZM375.7 401.8C374.8 401.7 370.6 401.4 366.3 401.1C362 400.8 358.3 400.5 358.2 400.4C358 400.3 356.5 400.1 354.8 400C344.8 399.2 333.1 396.1 337.1 395.2C340.4 394.4 343.4 394.4 349.1 394.8C352.4 395.1 355.4 395.5 355.7 395.6C355.9 395.7 357.7 395.9 359.5 396C361.3 396.2 364.2 396.4 365.8 396.6C367.5 396.9 372.4 397.4 376.7 397.9C384.6 398.7 385.4 398.8 412.6 399.2C420 399.3 425.6 399.5 425.5 399.7C425.4 399.9 424.8 400 424.2 400C423.6 400 423 400.1 422.8 400.3C422 401.1 409.1 401.8 393.2 401.8C384.4 401.9 376.5 401.9 375.7 401.8ZM375.1 388.1C374.5 388 374 387.8 374 387.5C374 387.3 375.8 385.2 378.1 382.9C383.3 377.8 385.5 374.4 387.3 369.2C389 364.1 389 362.4 388.4 326.5C388 306.3 387.9 304.2 386 296C384.9 291 384.8 290.3 385.5 290.3C387.5 290.3 390.2 293.2 391.4 296.7C392.8 300.5 392.8 300.9 392.8 334C392.8 370.4 392.9 368.6 389.9 376C387.5 381.7 384.5 385.5 380.8 387.4C379.6 388 376.8 388.4 375.1 388.1ZM422.3 260.1C422.3 260 422.9 259.1 423.6 258.2C424.8 256.5 434.3 244.3 434.7 244C434.8 243.9 435.7 242.8 436.7 241.5C437.7 240.2 440.4 237 442.7 234.3C445 231.7 448 228.1 449.4 226.5C457.1 217.3 460.6 213.4 461.9 212.6C462.9 212 463.6 211.9 465.5 211.9C467.1 211.8 467.8 212 467.8 212.2C467.8 212.4 461.6 219.3 453.9 227.4C446.2 235.5 438.4 243.8 436.6 245.8C434.7 247.8 432.2 250.4 431 251.6C429.8 252.9 427.7 255.2 426.2 256.8C423.9 259.4 422.3 260.7 422.3 260.1ZM392 242.9C391.9 242.8 390.1 242.5 388.1 242.2C383.2 241.5 378.7 240 372.7 237.1C370.7 236.1 368 235 366.7 234.5C361.1 232.7 358.5 231.6 357.8 230.8C356.4 229.3 356.2 227.8 356.6 221.8L356.9 216.2L355.7 214.5C354.6 212.9 352 207.6 352 207C352 206.9 351.6 205.7 351 204.5C350.4 203.3 350 202.1 350 201.8C350 201.6 349.7 201 349.2 200.5C348.5 199.7 348.3 199.7 342 199.3C338.4 199.1 333.7 198.8 331.5 198.6C329.3 198.5 325.6 198.3 323.2 198.2C320.8 198 317.2 197.8 315.2 197.6C313.2 197.4 309.1 197.2 306.2 197C303.2 196.9 300.4 196.6 299.9 196.4C299.4 196.2 296.9 193.9 294.4 191.3C291.9 188.7 286.7 183.4 282.9 179.5C279.1 175.7 276.1 172.4 276.3 172.3C276.4 172.2 277.3 172.2 278.3 172.4C279.3 172.5 281.9 172.8 284 173C286.1 173.1 288.1 173.3 288.3 173.4C288.6 173.6 290.9 173.8 293.5 174C296.1 174.2 301.5 174.7 305.7 175.1C309.8 175.4 315.3 175.9 318 176C320.7 176.1 324.6 176.4 326.8 176.6C329 176.8 334 177.1 337.8 177.2C342.6 177.3 345 177.5 345.5 177.8C345.9 178.1 346.5 179 346.8 179.9C347.1 180.8 348.1 183.7 349 186.3C349.9 189 351.1 192.2 351.5 193.5C351.9 194.8 353.1 198 354 200.7C354.9 203.3 356 206.5 356.4 207.6C357.2 209.9 358.8 211.9 360.1 212.1C360.8 212.2 360.8 212.3 360.8 216.8C360.7 219.4 360.6 222.9 360.5 224.6L360.3 227.6L362.2 228.7C365 230.3 366.1 230.7 369 230.9C371.2 231.1 371.7 231.2 373.4 232.5C376.2 234.6 380.4 236.5 384.3 237.5C392.7 239.5 401.7 238.9 401.7 236.4C401.6 235.5 400.7 234.5 398 232.8C391.4 228.5 384.4 221.5 379.8 214.7C378.9 213.3 378 211.9 377.9 211.7C377.8 211.4 377.2 210.4 376.7 209.4C376.2 208.4 375.8 207.4 375.9 207.1C376 206.9 376.5 206.4 377.1 206C377.7 205.7 378.5 205 379 204.5C379.7 203.8 379.7 203.6 379.4 202.4C379 200.9 377.2 195.3 376.4 192.7C376.1 191.7 375.5 189.6 375 188C374.5 186.4 373.8 184.3 373.5 183.2C373.2 182.1 372.8 180.8 372.6 180.4C372.5 180 372.3 179.3 372.3 179C372.3 178.3 372.5 178.3 376.1 178.4L379.8 178.5L381.4 181.8C383.6 186.2 385.5 190.3 387.8 195C388.8 197.1 389.9 199.1 390.2 199.4C390.6 199.7 391.6 200.2 392.5 200.6L394.2 201.2L394.2 209.2C394.2 213.7 394.3 217.4 394.4 217.6C394.6 217.7 397.1 217.9 400 217.9C405.1 218 405.3 218 407 217.2L408.7 216.3L411.3 217.1C417.4 219.1 421 219.7 425.8 219.6C430.7 219.6 437.9 218.2 439.1 217C439.7 216.4 439.7 216.4 438.8 215.4C438 214.5 437.3 214.2 435 213.6C428.6 212.1 423.6 210.2 420.2 208C419.6 207.6 418.9 207.2 418.7 207.1C418.4 207 417 206 415.7 205C412.1 202.3 408.2 198.1 407.5 196.2L406.9 194.6L408.5 193C409.9 191.6 410.1 191.2 410.1 190.1C410 189 408.6 185.3 406.7 181.3C406.3 180.5 406 179.5 406 179.1C406 178.3 406 178.3 410.8 178.3C423.9 178.3 463.5 176.9 465.2 176.5C465.5 176.3 468.1 176.1 470.8 176C473.6 175.9 478.4 175.5 481.5 175.2C484.6 174.9 490.1 174.5 493.7 174.2C497.2 173.9 500.4 173.5 500.7 173.4C500.9 173.3 502.7 173.1 504.5 172.9C506.3 172.8 508.5 172.6 509.2 172.5C510.2 172.3 510.7 172.4 510.7 172.7C510.7 173 496.5 187.8 490.4 193.8L488 196.2L484.9 196.4C483.2 196.6 479.1 196.8 475.8 197C472.5 197.1 467.7 197.4 465.2 197.6C462.6 197.8 456.2 198.2 450.8 198.5C445.5 198.8 437 199.2 432 199.5C416.3 200.3 416.9 200.3 418.3 201.8C420.5 204.1 426.4 207.2 431.2 208.5C432.3 208.8 433.9 209.3 434.7 209.5C435.6 209.8 436.5 210 436.8 210C437.5 210 440.4 211.3 441.6 212.2C443 213.3 443.7 214.6 443.7 216.6C443.7 218.1 443.5 218.5 442.5 219.5C441.1 220.9 440 221.4 436.4 222.3C432.2 223.4 426.7 223.8 421.8 223.3C417.7 223 416 222.7 411.6 221.4C409.9 220.9 409.4 220.9 408.2 221.3C407.3 221.6 404.6 221.8 400.3 221.9C394 222 393.8 222 392.7 221.3C392 220.8 391.2 219.9 390.8 219.2C390.1 217.9 390 217.5 390 211.1L390 204.3L388.2 203C387.3 202.3 386.1 201.4 385.6 201C384.2 200 384 200.1 384 202.3C384 204.6 383.1 207 381.8 207.8C380.8 208.5 380.8 208.9 381.9 210.9C384.2 214.8 387.4 218.7 390.7 221.8C393.2 224.2 394.4 225.2 400.2 229.4C403.8 232.1 404.7 233.2 405.4 235.3C405.7 236.4 405.7 236.9 405.3 238.1C404.5 240.8 402.4 242 397.3 242.5C396.7 242.6 395.3 242.7 394.2 242.9C393.1 243 392.1 243 392 242.9ZM371.3 170.7C370.3 170.5 370.1 170.3 369.6 169C369.3 168.2 369 167.2 369 166.8C369 166.4 368.8 165.3 368.5 164.5C368.3 163.6 367.8 161.9 367.5 160.7C366.8 158 366.2 155.7 365.5 153.4C365.2 152.4 365 151.4 365 151.1C365 150.8 364.8 149.8 364.5 148.9C364.3 147.9 363.8 146.3 363.5 145.2C362.6 141.3 362 138.8 361.7 137.8C361.5 137.3 361 135.3 360.5 133.3C359.5 129.3 358.4 127.1 356.4 125.1C353.8 122.4 350.3 121.3 344.8 121.3C341.2 121.3 336.4 121.9 332.4 123C331 123.4 329.4 123.9 328.8 124C328.3 124.2 326.6 124.7 325.2 125.1C320.6 126.6 316.6 126.2 313.5 123.9C312.4 123.1 310.2 120.8 305.8 115.5C305.3 115 304.1 113.5 303 112.3C302 111.1 300.6 109.3 300 108.3C297.1 104 296.1 102.4 295.9 102C295.7 101.7 295.5 101.2 295.2 100.8C293.1 97.3 291 93.3 291.2 93.1C291.5 92.8 292.9 94.5 296.1 98.7C304.5 109.8 313.4 119.6 316.7 121.4C318 122.1 318.6 122.2 321.7 122.1C324.9 122.1 329.3 121.3 331.8 120.4C332.2 120.2 335.4 119.1 339 118C342.6 116.8 347.4 115.3 349.8 114.5C352.2 113.7 355.7 112.6 357.7 112C359.6 111.4 361.7 110.7 362.3 110.5C367 108.9 368.6 108.4 368.8 108.7C369 108.9 362.9 116.7 359.6 120.6C358.8 121.6 358.8 122.5 359.9 124.1C361.7 126.8 363.5 130.9 364.5 134.7C364.8 135.9 365.3 137.5 365.5 138.3C365.8 139.2 366.2 140.8 366.5 142C366.8 143.2 367.2 144.6 367.4 145.2C367.6 145.7 367.8 146.5 367.9 147C368 147.5 368.3 148.6 368.5 149.6C368.8 150.5 369.3 152.2 369.6 153.2C370.2 155.5 370.6 156.6 372 160.2C372.6 161.6 373.3 163.4 373.6 164.2C373.9 164.9 374.3 166 374.5 166.5C375.8 169.5 376.1 170.3 375.9 170.6C375.6 171 373.3 171.1 371.3 170.7ZM339.2 170.1C337.9 170 334.8 169.8 332.3 169.6C329.9 169.4 325.4 169.1 322.3 169C319.3 168.8 315 168.6 312.8 168.4C310.6 168.2 308.6 168 308.2 168C306.7 168 308.1 167.2 310.9 166.5C313.7 165.7 314.6 165.5 317.4 164.5C324.1 162 328.4 160.1 332.1 157.8C332.8 157.3 333.4 157 333.5 157C333.6 157 334.3 156.6 335 156.2C337 154.9 338.7 154.3 338.8 154.8C338.9 155 339.2 156.1 339.5 157.3C339.8 158.5 340.3 160.2 340.5 161C340.7 161.8 341.2 163.5 341.5 164.7C341.8 165.9 342.3 167.4 342.5 168.1C343 169.5 342.7 170.4 341.9 170.3C341.7 170.2 340.4 170.2 339.2 170.1ZM283.7 150.1C282.1 149.8 282.2 149.4 284 148.5C287.6 146.8 290.7 144.6 293 142.1C294 141 296 138.8 297.5 137.2C300.3 134.1 304 131.6 304 132.7C304 133.2 295 145 293.3 146.7C290.8 149.2 286.6 150.7 283.7 150.1ZM325 83.2C324.8 82.6 324.4 81.6 324.1 80.8C323.9 80.1 323.2 78 322.5 76.2C321.8 74.3 320.9 71.8 320.5 70.5C318.5 64.6 316.4 59.2 314.8 55.7C314.3 54.7 313.7 53.4 313.5 52.8C313.3 52.3 312.8 51.3 312.5 50.6C312.2 49.9 312 49.1 312 48.8C312 48.6 311.8 47.8 311.5 47.2C311.2 46.6 311 45.8 311.1 45.5C311.3 45 311.9 45.4 314.3 47.7C315.9 49.2 318.4 51.6 320 53C324 56.5 325.7 58.2 325.7 58.8C325.7 59 325.1 60.3 324.3 61.5C323.6 62.7 323 63.9 323 64.2C323 64.5 323.6 65.5 324.4 66.3L325.8 67.7L325.9 75.4C325.9 83.4 325.7 85 325 83.2ZM319.5 47.2C316 43.8 313.7 41.1 313.7 40.8C313.7 40.1 315.6 38.6 318.1 37.4C318.9 37 319.8 36.4 320.1 36.1C320.3 35.8 320.6 34.2 320.7 31.8C320.8 28.2 320.9 28 321.8 27C323.8 25 325.6 26 326.6 29.7C327 31.4 327.3 32 327.7 32C328.3 32 333.8 26.4 334.5 25.1C334.7 24.6 335 23.2 335.2 22.1C335.5 19.3 336 18.9 338 19.5C340.5 20.3 346.6 22 347.2 22C348 22 348.4 23.6 348.2 26.5C348 28 347.7 29.8 347.5 30.5C346.7 33.1 346.2 36.6 346.5 38.6L346.7 40.6L345.1 42C343.5 43.3 341.4 46.8 340.9 49C340.8 49.5 340.3 50.3 339.8 50.8C339.1 51.6 338.8 51.7 337.4 51.6C333.6 51.2 331 49.7 327.1 45.8C325.6 44.3 324.3 43.1 324.2 43.2C324.1 43.4 324 44 324 44.7C324 46 325 48.1 326.9 50.9C327.9 52.4 327.8 52.8 326.4 52.9C325.4 53 324.9 52.6 319.5 47.2Z"/><path id="rute" fill-rule="evenodd" d="M396.7 96.8C397.7 95.6 398.8 94.1 399.2 93.6C400.1 92.3 400.2 90.3 399.5 89.1C399.1 88.6 399 88.2 399.2 88C399.4 87.8 401.3 87.5 403.5 87.3C412.2 86.5 418.9 83.4 422.7 78.4C424.3 76.3 427 71.2 427 70.2C427 69.8 427.3 68.9 427.7 68.1C428.3 66.7 428.4 66.6 429.4 66.8C434.3 67.9 436.7 68 440.7 67.2C443.8 66.6 445 66.2 447.6 64.9C452.9 62.2 458.7 55.9 461.6 49.6C462.2 48.4 462.8 47.3 463 47.2C463.2 47.1 463.7 47.2 464.1 47.4C465 47.9 466.4 48.5 469.3 49.4C472.3 50.4 480.7 50.4 483.8 49.6C491 47.5 496.9 43.5 501.8 37.6C502.5 36.7 503.3 36 503.6 36C503.8 36 505.1 36.9 506.3 38C510.6 41.8 517.1 45.7 522.8 47.9C530.8 50.9 539.3 51.9 551.5 51.2L555.2 50.9L556.1 52.1C557.6 54.1 560 57.7 560.7 59.1C561.1 59.8 561.5 60.3 561.7 60.2C561.9 60 562 58.4 562 56.5L562 53L560 50C558.9 48.4 558 46.9 558 46.8C558 46.4 555 43.6 552.9 42C551.5 40.9 547.4 38 547.2 38C547.1 38 546.5 37.6 545.8 37.2C544.5 36.3 538.7 33.4 536.5 32.6C533.7 31.5 532.4 31.1 530.8 30.6C522.5 28 512.5 27 502.4 27.7C499.1 27.9 495.6 28.2 494.5 28.4C493.4 28.6 491.6 28.9 490.5 29C489.4 29.1 487.9 29.4 487.2 29.6C486.4 29.8 484.7 30.2 483.3 30.5C481 31 480 31.3 475.8 32.5C473.8 33.1 467.5 35.1 466.3 35.6C465.9 35.8 464.8 36.2 464 36.5C463.2 36.8 462.1 37.3 461.5 37.5C460.9 37.8 459.7 38.3 458.7 38.7C453.7 40.7 443 45.9 438 48.9C437.4 49.3 436.3 49.9 435.6 50.3C434.9 50.7 433.7 51.4 432.9 51.9C432.1 52.4 431.3 52.9 431.2 53C429.8 53.7 420.9 59.8 416.7 63C409.9 68.1 401 75.4 397.8 78.6C397.1 79.3 395.9 80.3 395.1 80.9C393.7 82 393.7 82 389.9 82C386.2 82 386 82 386 82.7C386 83.5 387.6 85.7 388.2 85.7C388.9 85.7 389.1 86.3 388.6 86.9C388.3 87.3 388.3 87.5 389.1 88.1C389.6 88.5 390.8 89.2 391.8 89.5C392.7 89.8 393.8 90.3 394.2 90.6C394.5 90.8 395.1 91 395.4 91C396.5 91 396.1 91.8 394 93.8C392 95.8 391.6 96.8 392.5 97.1C392.8 97.2 393 97.6 393 97.9C393 99.8 394.5 99.3 396.7 96.8ZM404.8 82.6C404.6 82.4 404.8 82 405.3 81.7C405.8 81.4 407.6 79.9 409.5 78.3C423.4 66.5 423.4 66.5 423.7 67.1C423.8 67.3 423.7 67.9 423.5 68.4C423.2 68.9 423 69.5 423 69.7C423 70 422.5 71.1 421.9 72.3C420.6 74.9 417.8 78.1 415.5 79.5C411.9 81.8 405.5 83.7 404.8 82.6ZM431.7 63.3C430.5 63 429.4 62.7 429.4 62.7C429 62.6 430.6 61.3 433 59.7C438.4 56.2 440.2 55.1 440.7 54.9C440.9 54.8 441.6 54.4 442.2 54C442.7 53.6 443.5 53.2 443.8 53C444.2 52.8 445.4 52.2 446.5 51.5C447.6 50.9 450.1 49.5 452.1 48.5C454 47.5 456.2 46.4 456.8 46C458.3 45.2 459.2 45.1 458.8 45.9C458.7 46.2 458.4 47 458.2 47.5C457.7 48.8 455.4 52.8 454.7 53.6C454.4 53.9 453.6 54.8 453 55.6C451.6 57.4 447.4 60.6 444.8 61.8C440.7 63.8 435.7 64.3 431.7 63.3ZM539.5 47.3C539.1 47.2 538 47 536.9 47C533.5 47 525.7 44.8 520.7 42.4C515.4 40 507.5 34.3 507.5 33.1C507.5 32.5 507.4 32.5 517.5 33C526.4 33.5 531.5 34.8 539.8 38.9C544.6 41.2 551.3 45.7 551.3 46.5C551.3 46.8 550.6 47 549.6 47.2C546.6 47.5 540.2 47.7 539.5 47.3ZM472.5 46C470.3 45.7 468.5 45.1 466.7 44C465.2 43.1 464.5 42 465.5 42C465.7 42 466.5 41.8 467.1 41.5C468.1 41.1 468.8 40.8 472.3 39.5C475.2 38.4 476.2 38.1 478.2 37.5C479.3 37.2 480.8 36.7 481.5 36.5C484.3 35.6 488.6 34.7 493.8 33.8C495.5 33.5 497.2 33.2 497.7 33.1C498.1 33 498.7 33.1 499 33.3C499.4 33.6 499.3 33.8 498.5 34.9C497.3 36.8 493.9 39.9 491.5 41.6C489.4 43 485.3 45 484.5 45C484.3 45 483.5 45.2 482.9 45.5C481.5 46.1 474.9 46.4 472.5 46Z"/><path id="schnur" fill-rule="evenodd" d="M558.2 237.3C559.5 234.7 562.3 228.3 563.6 224.8C564.1 223.5 564.5 222.4 565.5 220.2C565.8 219.5 566 218.8 566 218.5C566 218.3 566.2 217.6 566.5 217.1C566.7 216.6 567.1 215.6 567.3 215C571.3 202.8 572.1 200.3 574.3 192.2C574.6 191.1 575.7 186.6 576.5 183C576.8 181.8 577.2 179.9 577.5 178.7C577.8 177.6 578 176.2 578 175.6C578 175.1 578.1 174.4 578.3 174.1C578.5 173.7 578.8 172.3 579 170.8C579.2 169.4 579.7 166.3 580 164C580.4 161.7 580.8 158.5 581 156.8C581.1 155.2 581.3 153.6 581.4 153.3C581.9 152.2 582.7 138.2 582.7 130.6C582.7 123.3 582 110.6 581.5 109.3C581.4 109.1 581.1 107.6 581 106.2C580.7 103.4 579.8 98.3 578.8 94.2C578.5 92.9 578.2 91.2 578 90.5C577.6 88.7 577 86.5 576.5 84.8C576.3 84.1 575.8 82.6 575.5 81.5C575.2 80.4 574.7 79 574.5 78.4C574.2 77.8 574 77.1 574 76.8C574 76.6 573.8 75.9 573.5 75.3C573.3 74.7 572.5 72.8 571.8 71.2C570.5 68 568.1 62.9 567 61C566.6 60.4 565.5 58.6 564.6 57.1C563.7 55.6 563 54.2 563 54C563 53.8 562.8 53.7 562.6 53.7C562.3 53.8 562.1 55 562.1 57.6C562 61.1 562 61.3 562.9 62.9C564.5 65.7 568 73.1 568 73.8C568 74 568.1 74.3 568.3 74.5C568.6 74.9 569.3 76.5 570.4 80C570.8 81.2 571.2 82.5 571.4 83C571.6 83.5 572 84.7 572.2 85.7C573.8 91.3 574 92.5 574.8 96.2C575 97.5 575.3 98.8 575.4 99.2C575.7 100 576.5 105.3 577.2 111C578 117 578 144.6 577.2 151.7C576.4 159.3 575.7 164.7 575.3 166C575.1 166.6 575 167.6 575 168.1C575 168.7 574.8 170 574.5 171.1C574.3 172.3 573.8 174.5 573.5 176.2C573.2 177.8 572.7 180 572.5 181C572.3 182 571.8 183.9 571.5 185.2C570.9 187.7 570.2 190.5 569.5 193.2C569.2 194.1 568.8 195.6 568.5 196.5C567.8 199.2 566 205.1 565.5 206.3C564.6 208.9 564.3 209.9 564 210.8C563.8 211.4 563.4 212.7 563 213.7C562.6 214.7 562.2 215.9 562 216.3C561.9 216.8 561.6 217.5 561.4 218C561.2 218.5 560.8 219.4 560.6 220.2C559.8 222.1 558 226.7 557.4 228C557.2 228.6 556.7 229.6 556.5 230.2C556.3 230.7 555.4 232.7 554.5 234.6C553.7 236.5 553 238.2 553 238.5C553 238.9 553.4 239 555.2 238.9L557.5 238.8L558.2 237.3Z"/><path id="olive" fill-rule="evenodd" d="M475.6 379.1C476.8 377.5 479.3 374.3 481 372C484.9 366.8 485.9 365.7 486.9 365.7C489.1 365.7 493 364.2 494.5 362.8C496.4 361 497.7 355.9 496.7 354C496.5 353.7 496.3 352.6 496.1 351.6C495.9 349.9 496 349.7 496.8 348.9C497.8 347.9 499.3 347.7 501.1 348.5C504 349.7 509.6 350.8 513.2 350.8C520.6 350.8 528.4 348.1 534.6 343.2C537.9 340.7 537.9 340.7 540.7 337.2C544.7 332.2 547.4 326.3 548.5 319.9C549.2 316.4 549 309.2 548.2 305.8C546.7 299.3 543.7 293.7 538.8 288.6C535.5 285.2 535.4 284.8 537.3 281C538.7 278.1 539.5 277.4 542.1 277C545.4 276.5 547.4 275 549.1 271.9C549.9 270.6 550 270 550 267.5C550 265.2 549.9 264.4 549.2 262.9C548.2 261 548.1 259.3 548.8 258.7C549 258.5 550 258.2 550.9 258C557.9 256.7 560.9 249.7 557 243.5C556.3 242.4 556.3 242.1 556.6 241.2C557.4 239.3 557.4 239.2 555 239.1C553.3 239 552.7 239.1 552.3 239.5C552.1 239.8 551.3 240 550.2 240C546.7 240 543.4 242 541.8 245C540.7 247.3 540.7 250.4 541.9 253.6C542.3 254.9 542.6 256.2 542.5 256.5C542.4 256.8 541.9 257 541.1 257C537.9 257 533.2 259.1 531.8 261.2C530.3 263.4 530 264.5 530 267.4C530 269 530.1 270.4 530.3 270.5C530.4 270.6 530.8 271.3 531.1 272.1L531.7 273.6L529.3 277.1C528 279.1 526.8 280.7 526.6 280.7C526.3 280.7 525.3 280.4 524.3 280C520.3 278.5 517.2 278 512 278C505 278 500.1 279.2 494.5 282.4C490.3 284.8 485 289.7 482.3 293.7C476.3 302.9 474.4 314.3 477.5 324C477.8 324.9 478 325.8 478 326C478 326.2 478.8 328.1 479.8 330.1C481.8 334.2 484 337.4 487.3 340.7C489.7 343.1 490.2 344 489.6 345C489.2 345.8 487.4 347 486.6 347C485.5 347 482.3 348.4 481.1 349.5C479.4 351 478.2 353.3 478.2 355.5C478.2 357.2 479 360.1 479.7 361.3C480.1 362 480.1 362.2 478.5 365.8C478.3 366.4 477.6 368 477 369.5C476.4 371 475.7 372.7 475.5 373.2C473.6 377.4 472 381.4 472 381.7C472 381.9 472.3 382 472.6 382C473 382 474.1 380.9 475.6 379.1ZM487.4 314.6C486.9 313.7 486.3 311.8 486.3 310.7C486.3 309.3 487.8 306.3 488.9 305.6C489.7 305 489.7 305 490.4 305.5C491.2 306.3 491.2 307.5 490.3 310.3C489.1 314.1 488.1 315.7 487.4 314.6ZM492.7 300.7C491.8 299.8 491.8 297.4 492.6 295.7C493.6 293.8 497.4 290.3 499.7 289.1C503.8 287.1 508.4 286.4 510.2 287.5C512 288.7 511.8 291.6 509.8 293.7C508 295.6 502.4 299 498.8 300.5C498.1 300.8 496.6 301.1 495.5 301.2C493.7 301.4 493.3 301.3 492.7 300.7ZM535.5 265.2C535 264 536.5 262.3 538.4 261.9C539.8 261.6 539.9 262.3 538.6 263.6C537.1 265.1 535.7 265.9 535.5 265.2ZM548.5 253.3C547 252.7 546.2 251.9 545.7 250.3C545.3 248.6 545.8 246.6 547 245.6C548 244.8 550.3 244.8 551.6 245.6C554.9 247.6 554.9 251.3 551.6 253.1C550.3 253.7 549.9 253.8 548.5 253.3Z"/></svg>
